<?xml version="1.0" encoding="iso-8859-1"?>
<!-- Uploaded to: SVG Repo, www.svgrepo.com, Generator: SVG Repo Mixer Tools -->
<!DOCTYPE svg PUBLIC "-//W3C//DTD SVG 1.1//EN" "http://www.w3.org/Graphics/SVG/1.1/DTD/svg11.dtd">
<svg fill="#000000" height="800px" width="800px" version="1.1" id="Capa_1" xmlns="http://www.w3.org/2000/svg" xmlns:xlink="http://www.w3.org/1999/xlink" 
	 viewBox="0 0 489.49 489.49" xml:space="preserve">
<g>
	<path d="M230.232,299.526v16.14h28.823v-16.093c-4.723,0.9-9.51,1.392-14.325,1.392
		C239.85,300.964,235.017,300.448,230.232,299.526z"/>
	<path d="M379.666,276.481l-59.085-17.618c-3.816,4.779-7.804,9.133-11.933,13.153l66.452,19.815
		c6.475,1.931,10.837,7.773,10.837,14.537v25.915c0,73.168-55.958,133.497-127.32,140.489l16.656-39.334l-16.015-107.099h-29.026
		l-16.015,107.099l16.655,39.334c-71.362-6.992-127.32-67.321-127.32-140.489v-25.915c0-6.763,4.364-12.605,10.854-14.537
		l66.42-19.807c-4.129-4.02-8.117-8.376-11.949-13.153l-59.055,17.609c-13.229,3.941-22.285,16.094-22.285,29.887v25.915
		c0,86.822,70.378,157.207,157.207,157.207c86.83,0,157.207-70.385,157.207-157.207v-25.915
		C401.952,292.574,392.897,280.422,379.666,276.481z"/>
	<path d="M159.823,213.447c16.469,35.329,46.762,71.502,84.907,71.502c38.112,0,68.405-36.118,84.875-71.424
		c13.059-2.558,25.444-14.71,31.232-31.303c7.146-20.621,2.189-40.788-11.088-48.999c0.014-0.336,0.125-0.657,0.078-1.001
		c-0.219-1.736-1.142-3.144-2.457-4.074c4.004-6.279,7.023-16.187,6.789-31.654c-0.094-5.685-0.594-12.074-1.689-19.385
		c-8.759-58.257-102.75-104.088-144.133-58.718c0,0-31.701-6.342-54.723,26.188c-9.273,13.098-22.598,39.325-21.441,61.337
		c0.454,8.649,3.081,16.664,9.165,22.951c-0.845,0.907-1.503,2.018-1.674,3.355c-0.046,0.352,0.063,0.672,0.078,1.009
		c-6.084,3.793-10.727,10.142-12.903,18.377c-2.454,9.329-1.814,20.206,1.815,30.614
		C134.378,198.659,146.561,210.74,159.823,213.447z M214.218,77.11c0,0,84.859,57.389,93.539,21.356c0,0,15.247,11.08,21.098,33.5
		c-6.209,3.511-11.184,8.164-14.858,12.355c-5.473-10.259-16.171-17.336-28.588-17.336c-12.215,0-22.756,6.85-28.324,16.836
		c-7.896-2.893-16.78-2.893-24.679,0c-5.566-9.986-16.107-16.836-28.322-16.836c-12.417,0-23.115,7.077-28.59,17.336
		c-3.612-4.105-8.43-8.688-14.481-12.175C165.907,117.522,180.53,84.351,214.218,77.11z M269.049,151.327
		c-0.485-0.477-1.047-0.813-1.563-1.259c3.456-6.49,10.072-11.073,17.923-11.073c11.306,0,20.518,9.204,20.518,20.519
		c0,11.316-9.213,20.52-20.518,20.52c-10.65,0-19.143-8.259-20.144-18.651c1.359-0.117,2.721-0.524,3.769-1.563
		C271.379,157.474,271.395,153.673,269.049,151.327z M220.457,159.82c1.049,1.039,2.409,1.446,3.77,1.563
		c-0.985,10.392-9.493,18.651-20.144,18.651c-11.308,0-20.52-9.204-20.52-20.52c0-11.315,9.212-20.519,20.52-20.519
		c7.851,0,14.467,4.583,17.923,11.073c-0.517,0.446-1.08,0.782-1.564,1.259C218.096,153.673,218.11,157.474,220.457,159.82z
		 M171.615,158.928c-0.016,0.203-0.063,0.383-0.063,0.586c0,17.938,14.593,32.531,32.53,32.531
		c17.938,0,32.529-14.592,32.529-32.531c0-1.5-0.25-2.94-0.438-4.386c5.442-2.167,11.697-2.167,17.142,0
		c-0.188,1.446-0.439,2.886-0.439,4.386c0,17.938,14.593,32.531,32.531,32.531c17.938,0,32.529-14.592,32.529-32.531
		c0-0.203-0.047-0.383-0.063-0.586c1.784-2.753,7.32-10.455,15.25-15.507c1.234,1.134,2.799,1.947,4.582,2.119
		c0.484,0.047,1.47,0.149,1.985,0.321c7.085,2.471,11.309,15.858,6.022,31.1c-4.77,13.669-14.467,21.042-21.349,21.042
		c-0.063,0-0.108,0-0.157,0c-3.174,0-6.067,1.885-7.334,4.81c-13.935,31.967-40.208,66.123-72.144,66.123
		c-31.936,0-58.21-34.156-72.145-66.123c-1.267-2.924-4.489-4.81-7.68-4.81c-6.694,0-16.375-7.373-21.13-21.042
		c-2.548-7.335-3.079-15.084-1.454-21.263c0.798-2.979,2.8-8.218,7.46-9.837c0.502-0.172,1.486-0.274,1.972-0.321
		c1.798-0.172,3.363-0.985,4.598-2.135C164.296,148.457,169.817,156.175,171.615,158.928z"/>
</g>
</svg>